# xmcd
#
# Track frame offsets:
#	225
#	15143
#	20273
#	29871
#	39048
#	44485
#	54906
#	60346
#	69428
#	80361
#	88739
#	101356
#	111010
#	125686
#	133739
#	141272
#	148953
#	154970
#	166622
#	178495
#	185270
#	198143
#	213197
#	223572
#	233456
#	255608
#	264572
#	276133
#	288270
#	301513
#	314837
#	322604
#	339983
#
# Disc length: 4795 seconds
#
# Revision: 3
# Processed by: cddbd v1.5.2PL0 Copyright (c) Steve Scherf et al.
# Submitted via: EZCDAudioConverter 4.0.2.1
#
DISCID=c712b821
DTITLE=Булат Окуджава - Избранное
DYEAR=1997
DGENRE=country
TTITLE0=Молитва
TTITLE1=Песенка о бумажном солдатике
TTITLE2=Песенка о Лёнке Королёве
TTITLE3=Песенка о моей жизни
TTITLE4=Песенка про чёрного кота
TTITLE5=Песенка о пехоте
TTITLE6=Песенка о голубом шарике
TTITLE7=Песенка о солдатских сапогах
TTITLE8=Песенка о московском муравье
TTITLE9=Живописцы
TTITLE10=Песенка о полночном троллейбусе
TTITLE11=Песенка о ночной Москве
TTITLE12=А всё-таки жаль...
TTITLE13=Из поздравления театру "Современник"
TTITLE14=Гори, огонь, гори
TTITLE15="За что ж вы Ваньку-то Морозова..."
TTITLE16=Песенка о дураках
TTITLE17=Песенка о старом, больном, усталом Короле
TTITLE18=Чудесный вальс
TTITLE19=Песенка весёлого солдата
TTITLE20=Песенка о Моцарте
TTITLE21=Союз друзей
TTITLE22=Старый пиджак
TTITLE23=Мастер Гриша
TTITLE24=Прощание с Новогодней елкой
TTITLE25=Батальное полотно
TTITLE26="В день рождения подарок..."
TTITLE27=Музыкант
TTITLE28=Песенка о юнкерах
TTITLE29=Я пишу исторический роман
TTITLE30="Давайте восклицать..."
TTITLE31=Молодой гусар
TTITLE32=Кабинеты моих друзей
EXTD=
EXTT0=
EXTT1=
EXTT2=
EXTT3=
EXTT4=
EXTT5=
EXTT6=
EXTT7=
EXTT8=
EXTT9=
EXTT10=
EXTT11=
EXTT12=
EXTT13=
EXTT14=
EXTT15=
EXTT16=
EXTT17=
EXTT18=
EXTT19=
EXTT20=
EXTT21=
EXTT22=
EXTT23=
EXTT24=
EXTT25=
EXTT26=
EXTT27=
EXTT28=
EXTT29=
EXTT30=
EXTT31=
EXTT32=
PLAYORDER=
